<svg width="17" height="17" viewBox="0 0 17 17" fill="none" xmlns="http://www.w3.org/2000/svg">
<g clip-path="url(#clip0_6_8040)">
<path d="M8.33333 1.66667C4.65143 1.66667 1.66667 4.65143 1.66667 8.33333C1.66667 8.79357 1.29357 9.16667 0.833333 9.16667C0.373096 9.16667 0 8.79357 0 8.33333C0 3.73096 3.73096 0 8.33333 0C10.6051 0 12.6642 0.909459 14.1667 2.38229L14.1667 1.66667C14.1667 1.20643 14.5398 0.833336 15 0.833333C15.4603 0.83333 15.8334 1.20642 15.8334 1.66666L15.8334 4.89174C15.8334 5.14385 15.7192 5.38241 15.5229 5.54061C15.3266 5.6988 15.0693 5.75962 14.8229 5.70604L11.4895 4.98097C11.0398 4.88315 10.7546 4.43928 10.8524 3.98955C10.9502 3.53983 11.3941 3.25456 11.8438 3.35238L13.041 3.6128C11.8344 2.40935 10.1705 1.66667 8.33333 1.66667Z" fill="#666666"/>
<path d="M15.8333 7.5C16.2936 7.5 16.6667 7.8731 16.6667 8.33333C16.6667 12.9357 12.9357 16.6667 8.33333 16.6667C6.06158 16.6667 4.00246 15.7572 2.49997 14.2844L2.49997 15C2.49998 15.4602 2.12688 15.8333 1.66665 15.8333C1.20641 15.8333 0.833311 15.4602 0.833308 15L0.833286 11.7749C0.833282 11.5228 0.947417 11.2843 1.14372 11.1261C1.34002 10.9679 1.59739 10.907 1.84374 10.9606L5.17712 11.6857C5.62684 11.7835 5.91211 12.2274 5.81429 12.6771C5.71647 13.1268 5.2726 13.4121 4.82288 13.3143L3.62568 13.0539C4.83226 14.2573 6.49617 15 8.33333 15C12.0152 15 15 12.0152 15 8.33333C15 7.8731 15.3731 7.5 15.8333 7.5Z" fill="#666666"/>
<path fill-rule="evenodd" clip-rule="evenodd" d="M8.33325 4.375C8.67843 4.375 8.95825 4.65482 8.95825 5V5.31939C9.28586 5.36033 9.61041 5.43358 9.9271 5.53914L10.5309 5.74041C10.8584 5.84956 11.0353 6.20351 10.9262 6.53098C10.817 6.85844 10.4631 7.03542 10.1356 6.92626L9.53181 6.72499C9.34372 6.6623 9.15194 6.61476 8.95825 6.58238V7.80388L9.54775 7.90213C10.3617 8.03779 10.9583 8.742 10.9583 9.56717V9.69688C10.9583 10.346 10.5429 10.9223 9.9271 11.1275C9.61041 11.2331 9.28586 11.3063 8.95825 11.3473V11.6667C8.95825 12.0118 8.67843 12.2917 8.33325 12.2917C7.98807 12.2917 7.70825 12.0118 7.70825 11.6667V11.3473C7.38065 11.3063 7.05609 11.2331 6.73941 11.1275L6.13561 10.9263C5.80815 10.8171 5.63117 10.4632 5.74032 10.1357C5.84948 9.80823 6.20343 9.63125 6.53089 9.74041L7.13469 9.94167C7.32278 10.0044 7.51456 10.0519 7.70825 10.0843V8.86279L7.11875 8.76454C6.30481 8.62888 5.70825 7.92466 5.70825 7.0995V6.96979C5.70825 6.32069 6.12361 5.74441 6.73941 5.53914C7.05609 5.43358 7.38065 5.36033 7.70825 5.31939V5C7.70825 4.65482 7.98807 4.375 8.33325 4.375ZM7.70825 6.58238C7.51456 6.61476 7.32278 6.6623 7.13469 6.72499C7.02932 6.76012 6.95825 6.85872 6.95825 6.96979V7.0995C6.95825 7.31361 7.11305 7.49635 7.32425 7.53155L7.70825 7.59555V6.58238ZM8.95825 10.0843C9.15194 10.0519 9.34372 10.0044 9.53181 9.94167C9.63718 9.90655 9.70825 9.80794 9.70825 9.69688V9.56717C9.70825 9.35305 9.55346 9.17032 9.34226 9.13512L8.95825 9.07112V10.0843Z" fill="#666666"/>
</g>
<defs>
<clipPath id="clip0_6_8040">
<rect width="16.6667" height="16.6667" fill="white" transform="matrix(-1 0 0 -1 16.667 16.6667)"/>
</clipPath>
</defs>
</svg>
